<svg width="140" height="31" xmlns="http://www.w3.org/2000/svg">

 <g>
  <title>background</title>
  <rect fill="none" id="canvas_background" height="602" width="802" y="-1" x="-1"/>
 </g>
 <g>
  <title>Layer 1</title>
  <g id="svg_1">
   <polygon stroke="null" transform="rotate(1.02839195728302 23.250000000000174,12.500000000000007) " id="svg_3" fill="#52B665" points="17.908584594726562,14.215394020080566 32.63357162475586,14.215394020080566 32.63357162475586,10.59400561451912 17.908584594726562,10.59400561451912 17.908584594726562,6.400819301605225 34.36592102050781,6.400819301605225 34.36592102050781,2.779428482055664 12.134078979492188,2.779428482055664 12.134078979492188,22.220571517944336 34.36592102050781,22.220571517944336 34.36592102050781,18.59918212890625 17.908584594726562,18.59918212890625 "/>
   <polygon id="svg_6" fill="#52B665" points="44.599998474121094,15.899999618530273 39.30000305175781,9.399999618530273 37.69999694824219,9.399999618530273 37.69999694824219,19.600000381469727 39.69999694824219,19.600000381469727 39.69999694824219,12.899999618530273 45.099998474121094,19.600000381469727 46.5,19.600000381469727 46.5,9.399999618530273 44.599998474121094,9.399999618530273 "/>
   <path stroke="null" id="svg_8" fill="#52B665" d="m45.12231,-17.74038c-35.29934,-5.35577 -35.29934,-9.64038 -35.29934,-14.99615c0,-6.42692 10.08552,-10.71154 25.21381,-10.71154c15.12829,0 26.89473,3.21346 42.02302,10.71154l3.36184,2.14231l16.80921,-14.99615l0,-3.21346l-3.36184,-2.14231c-18.49013,-9.64038 -36.98026,-12.85385 -60.51315,-12.85385c-33.61842,0 -58.83223,13.925 -58.83223,32.13461c0,22.49423 28.57565,29.99231 58.83223,33.20577c33.61842,4.28462 33.61842,9.64038 33.61842,13.925c0,7.49808 -10.08552,11.78269 -26.89473,11.78269c-18.49013,0 -31.9375,-3.21346 -50.42762,-13.925l-3.36184,-2.14231l-18.49013,13.925l0,3.21346l3.36184,2.14231c20.17105,11.78269 42.02302,17.13846 68.91775,17.13846c35.29934,0 60.51315,-13.925 60.51315,-33.20577c1.68092,-16.06731 -15.12829,-26.77885 -55.47039,-32.13461z"/>
   <circle id="svg_10" fill="#52B665" r="15" cy="-50.5" cx="58"/>
   <rect id="svg_13" fill="#FFFFFF" height="2.1" width="6.9" y="92.5" x="-119"/>
   <text xml:space="preserve" text-anchor="start" font-family="Helvetica, Arial, sans-serif" font-size="24" id="svg_15" y="-20.04688" x="75.5" stroke-opacity="null" stroke-width="0" stroke="null" fill="#19c138">D</text>
  </g>
 </g>
</svg>