<?xml version="1.0" encoding="utf-8"?>
<!-- Generator: Adobe Illustrator 19.1.0, SVG Export Plug-In . SVG Version: 6.00 Build 0)  -->
<svg version="1.0" id="Layer_1" xmlns="http://www.w3.org/2000/svg" xmlns:xlink="http://www.w3.org/1999/xlink" x="0px" y="0px"
	 width="75px" height="75px" viewBox="0 0 75 75" enable-background="new 0 0 75 75" xml:space="preserve">
<g>
	<circle fill="#F27F7F" cx="37.5" cy="37.5" r="37.5"/>
	<g>
		<g>
			<path fill="#E16363" d="M74.6,42.8L50.3,18.4l-13,2.2V75c0.1,0,0.1,0,0.2,0C56.4,75,72.1,61,74.6,42.8z"/>
		</g>
	</g>
	<g>
		<path fill="#FDD14B" d="M51.8,54.5h-8v-2.2c3.9-1.9,6.3-5.1,7.6-6.8c0.2-0.2,0.3-0.5,0.4-0.9c0,0,0-3.3,0-3.3
			c0.1,0,0.2,0.1,0.4,0.1c0.3,0,0.6-0.1,0.8-0.3c0,0,0,0,0,0c0.1-0.1,0.1-0.1,0.2-0.2c1.3-1.5,2.3-5.3,2.3-7.2
			c0-1.5-1.2-2.8-2.8-2.8c-0.2,0-0.4,0-0.6,0.1v-0.3c0.4,0.1,0.8,0.2,1.2,0.3c-0.4-0.2-0.8-0.4-1.2-0.6v-6.6c0-4.6-3.7-8.3-8.3-8.3
			h-6.4h-6.4c-4.6,0-8.3,3.7-8.3,8.3v6.6c-0.4,0.2-0.8,0.4-1.2,0.6c0.4-0.1,0.8-0.2,1.2-0.3v0.3c-0.2,0-0.4-0.1-0.6-0.1
			c-1.5,0-2.8,1.2-2.8,2.8c0,1.9,1,5.7,2.3,7.2c0.1,0.1,0.1,0.1,0.2,0.2c0,0,0,0,0,0c0.2,0.2,0.5,0.3,0.8,0.3c0.1,0,0.3,0,0.4-0.1
			c0,0,0,3.3,0,3.3c0,0.3,0.2,0.6,0.4,0.9c1.3,1.6,3.7,4.9,7.6,6.8v2.2h-8c-5.4,0-9.7,4.4-9.7,9.7v2c6.5,5.5,14.9,8.8,24.1,8.8
			s17.6-3.3,24.1-8.8v-2C61.6,58.8,57.2,54.5,51.8,54.5z"/>
	</g>
	<path fill="#FFF1D0" d="M53.4,31.1L53.4,31.1C53.4,31.1,53.4,31.1,53.4,31.1C53.4,31,53.4,31,53.4,31.1c-0.1-0.1-0.1-0.1-0.2-0.2
		c-0.2-0.1-0.5-0.3-1-0.5v-6.6c0-4.6-3.7-8.3-8.3-8.3h-6.4h-6.4c-4.6,0-8.3,3.7-8.3,8.3v6.6c0,0-0.7,0.2-1.5,0.8
		c-1.1,0.4-1.9,1.4-1.9,2.6c0,1.9,1,5.7,2.3,7.2c0.1,0.1,0.1,0.1,0.2,0.2c0,0,0,0,0,0c0.2,0.2,0.5,0.3,0.8,0.3c0.1,0,0.3,0,0.4-0.1
		c0,0,0,3.3,0,3.3c0,0.3,0.2,0.6,0.4,0.9c1.3,1.6,3.7,4.9,7.6,6.8v2.2v2.9c0,3.5,2.8,6.2,6.3,6.2h0.2c3.5,0,6.3-2.8,6.3-6.2v-2.9
		v-2.2c3.9-1.9,6.3-5.1,7.6-6.8c0.2-0.2,0.3-0.5,0.4-0.9c0,0,0-3.3,0-3.3c0.1,0,0.2,0.1,0.4,0.1c0.3,0,0.6-0.1,0.8-0.3c0,0,0,0,0,0
		c0.1-0.1,0.1-0.1,0.2-0.2c1.3-1.5,2.3-5.3,2.3-7.2C55.6,32.5,54.7,31.4,53.4,31.1z"/>
	<path fill="#E3CFA9" d="M22.8,30.7l1.2-4.2l27.9-1v13.5c0,0-11.7-8.7-29.1-8.1"/>
	<path fill="#BCA06C" d="M37.5,27c-5.8,0-11.2,1.5-15.9,4c4.7-1.2,10.2-1.8,15.9-1.8c5.8,0,11.2,0.7,15.9,1.8
		C48.7,28.4,43.3,27,37.5,27z"/>
	<path fill="#D9C593" d="M43.9,15.5h-6.4h-6.4c-4.6,0-8.3,3.7-8.3,8.3v6.6c4.4-2.2,9.4-3.4,14.7-3.4c5.3,0,10.3,1.2,14.7,3.4v-6.6
		C52.2,19.2,48.5,15.5,43.9,15.5z"/>
	<g>
		<path fill="#E2CEA6" d="M32.5,16.8h6.4h6.4c1.9,0,3.7,0.7,5.2,1.8c-1.5-1.9-3.9-3.2-6.5-3.2h-6.4h-6.4c-4.6,0-8.3,3.7-8.3,8.3v6.6
			c0.5-0.2,0.9-0.4,1.4-0.6v-4.6C24.2,20.6,27.9,16.8,32.5,16.8z"/>
	</g>
	<path fill="#AF8E2F" d="M50.8,30.4c-1.5-0.3-3-0.5-4.6-0.7c-0.4,0-0.8-0.1-1.2-0.1c-2.4-0.3-5-0.4-7.6-0.4c-2.3,0-4.6,0.1-6.7,0.3
		c4.8,0.3,9.3,2.1,12.8,4.9c0.9-1.2,1.7-2.6,2.4-4c1.9,2,3.5,4.3,4.6,6.9c0.3-1.4,0.4-2.8,0.4-4.2C51,32.2,50.9,31.3,50.8,30.4z"/>
	<g>
		<g>
			<path fill="#E3CFA9" d="M37.5,53.8c-2.2,0-4.4-0.5-6.3-1.4l0,0L43.9,65V52.3C41.9,53.3,39.8,53.8,37.5,53.8z"/>
		</g>
	</g>
	<g>
		<g>
			<path fill="#AF8E2F" d="M37.4,67.8h0.2c5.7,0,10.4-4.7,10.4-10.4v-2.9h-4.2v2.9c0,3.5-2.8,6.2-6.3,6.2h-0.2
				c-3.5,0-6.3-2.8-6.3-6.2v-2.9H27v2.9C27,63.1,31.6,67.8,37.4,67.8z"/>
		</g>
	</g>
	<g>
		<path fill="#F7D980" d="M24.5,55.9H27v-1.4h-3.8c-5.4,0-9.7,4.4-9.7,9.7v2c0.5,0.4,0.9,0.7,1.4,1.1v-1.8
			C14.8,60.2,19.2,55.9,24.5,55.9z"/>
	</g>
</g>
</svg>
