<?xml version="1.0" encoding="utf-8"?>
<!-- Generator: Adobe Illustrator 19.1.0, SVG Export Plug-In . SVG Version: 6.00 Build 0)  -->
<svg version="1.1" id="Layer_1" xmlns="http://www.w3.org/2000/svg" xmlns:xlink="http://www.w3.org/1999/xlink" x="0px" y="0px"
	 width="252px" height="252px" viewBox="0 0 252 252" style="enable-background:new 0 0 252 252;" xml:space="preserve">
<style type="text/css">
	.st0{fill:#F1F1F1;}
	.st1{fill:#F2F2F2;}
</style>
<g>
	<g>
		<path class="st1" d="M64.3,103.9H35.9c-7.1,0-12.4,5.8-12.4,12.9v107.5c0,7.1,5.3,12.9,12.4,12.9h28.9c7.1,0,12.4-5.8,12.4-12.9
			V116.8C76.8,109.7,71.5,103.9,64.3,103.9z"/>
		<path class="st1" d="M206.5,148.3h-28.9c-7.1,0-12.4,5.8-12.4,12.9v63.5c0,7.1,5.3,12.4,12.4,12.9h28.9c7.1,0,12.4-5.8,12.4-12.9
			v-63.5C218.9,154.1,213.6,148.3,206.5,148.3z"/>
		<path class="st1" d="M135.4,32.9h-28.9c-7.1,0.4-12.4,6.2-12.4,13.3v177.7c-0.4,7.1,5.3,12.9,12.4,13.3h28.9
			c7.1-0.4,12.4-6.2,12.4-13.3V46.2C148.3,39.1,142.5,33.3,135.4,32.9z"/>
	</g>
	<g>
		<rect x="2" y="25.5" class="st1" width="1.2" height="226.5"/>
		<rect x="2" y="250.8" class="st1" width="248" height="1.2"/>
	</g>
</g>
</svg>
