<?xml version="1.0" encoding="utf-8"?>
<!-- Generator: Adobe Illustrator 19.1.0, SVG Export Plug-In . SVG Version: 6.00 Build 0)  -->
<svg version="1.1" id="Layer_1" xmlns="http://www.w3.org/2000/svg" xmlns:xlink="http://www.w3.org/1999/xlink" x="0px" y="0px"
	 width="252px" height="252px" viewBox="0 0 252 252" style="enable-background:new 0 0 252 252;" xml:space="preserve">
<style type="text/css">
	.st0{fill:#F1F1F1;}
	.st1{fill:#F2F2F2;}
</style>
<g>
	<path class="st0" d="M167.3,252H84.7V117.4h82.7V252z M128.9,172.3h-2.8l-6.2,4.8l1.7,2.1c1.8-1.5,2.9-2.4,3.2-2.6
		c0.3-0.3,0.6-0.5,0.8-0.8c-0.1,0.9-0.1,2.2-0.1,3.8v13.5h3.4V172.3z"/>
	<path class="st0" d="M84.7,252H2V151h82.7V252z M50.3,207h-9.8v-0.1l3.6-3.5c1.6-1.5,2.8-2.7,3.5-3.6c0.7-0.9,1.2-1.8,1.5-2.6
		c0.3-0.8,0.5-1.7,0.5-2.7c0-1.7-0.6-3-1.7-4c-1.2-1-2.7-1.5-4.6-1.5c-1.2,0-2.4,0.2-3.5,0.6c-1.1,0.4-2.2,1.1-3.3,2.1l1.8,2.2
		c1-0.8,1.8-1.3,2.6-1.6c0.7-0.3,1.5-0.4,2.3-0.4c1,0,1.8,0.3,2.3,0.8c0.6,0.5,0.8,1.3,0.8,2.2c0,0.7-0.1,1.3-0.4,1.9
		c-0.2,0.6-0.6,1.2-1.1,1.9c-0.5,0.7-1.6,1.8-3.1,3.4l-5.3,5.4v2.5h14V207z"/>
	<path class="st0" d="M250,252h-82.7v-67.3H250V252z M213.1,207.3c-1.2-0.9-2.8-1.3-4.8-1.3c-2.5,0-4.6,0.7-6.5,2.1l1.6,2.3
		c1-0.6,1.8-1.1,2.5-1.3c0.7-0.2,1.5-0.3,2.2-0.3c1.1,0,1.9,0.2,2.5,0.7c0.6,0.5,0.8,1.1,0.8,2c0,2.2-1.6,3.4-4.9,3.4h-1.8v2.7h1.8
		c1.8,0,3.2,0.3,4.1,0.8c0.9,0.5,1.3,1.3,1.3,2.4c0,1.2-0.4,2.1-1.2,2.7s-2,0.9-3.5,0.9c-0.9,0-1.8-0.1-2.8-0.3
		c-1-0.2-1.9-0.6-2.7-1v2.9c1.6,0.7,3.5,1.1,5.7,1.1c2.6,0,4.5-0.5,5.9-1.6c1.4-1.1,2.1-2.6,2.1-4.5c0-1.3-0.4-2.4-1.2-3.2
		c-0.8-0.8-2-1.3-3.7-1.5v-0.1c1.4-0.3,2.4-0.9,3.2-1.7c0.8-0.9,1.1-1.9,1.1-3.2C214.8,209.4,214.2,208.2,213.1,207.3z"/>
</g>
</svg>
