<?xml version="1.0" encoding="utf-8"?>
<!-- Generator: Adobe Illustrator 19.1.0, SVG Export Plug-In . SVG Version: 6.00 Build 0)  -->
<svg version="1.1" id="Layer_1" xmlns="http://www.w3.org/2000/svg" xmlns:xlink="http://www.w3.org/1999/xlink" x="0px" y="0px"
	 width="252px" height="252px" viewBox="0 0 252 252" style="enable-background:new 0 0 252 252;" xml:space="preserve">
<style type="text/css">
	.st0{fill:#F1F1F1;}
	.st1{fill:#F2F2F2;}
</style>
<g>
	<g>
		<path class="st1" d="M182.5,83.3c-7.3,0-13.2,5.9-13.2,13.2c0,3.9,1.6,7.3,4.3,9.7L163.4,119c-0.9-0.2-1.7-0.2-2.7-0.2
			c-1.4,0-2.8,0.2-4.1,0.6l-12.6-8.4c0.9-1.7,1.4-3.8,1.4-5.8c0-7.3-5.9-13.2-13.2-13.2c-7.3,0-13.2,5.9-13.2,13.2
			c0,3.5,1.4,6.8,3.6,9.1l-10,14c-1.3-0.4-2.7-0.6-4.2-0.6c-7.3,0-13.2,5.9-13.2,13.2s5.9,13.2,13.2,13.2c7.3,0,13.2-5.9,13.2-13.2
			c0-2.7-0.9-5.2-2.1-7.3l10.9-15.3c0.5,0.1,1.2,0.1,1.7,0.1c1.9,0,3.9-0.4,5.5-1.2l11.9,7.8c-1.2,1.9-1.9,4.3-1.9,6.9
			c0,7.3,5.9,13.2,13.2,13.2c7.3,0,13.2-5.9,13.2-13.2c0-3.2-1.2-6.1-3.1-8.5l10.9-14c0.2,0,0.4,0,0.8,0c7.3,0,13.2-5.9,13.2-13.2
			C195.7,89.2,189.8,83.3,182.5,83.3z M132.2,100.7c2.6,0,4.6,2,4.6,4.6c0,2.6-2,4.6-4.6,4.6c-2.6,0-4.6-2-4.6-4.6
			C127.6,102.7,129.7,100.7,132.2,100.7z M108.6,145.3c-2.6,0-4.6-2-4.6-4.6c0-2.6,2-4.6,4.6-4.6c0.9,0,1.6,0.2,2.3,0.6
			c0.2,0.2,0.4,0.3,0.6,0.5c0.1,0.1,0.2,0.2,0.4,0.2c0.8,0.9,1.3,1.9,1.3,3.2C113.1,143.3,111.1,145.3,108.6,145.3z M160.8,136.5
			c-2.6,0-4.6-2-4.6-4.6c0-2.6,2-4.6,4.6-4.6s4.6,2,4.6,4.6S163.4,136.5,160.8,136.5z M182.5,101c-2.6,0-4.6-2-4.6-4.6
			s2-4.6,4.6-4.6c2.6,0,4.6,2,4.6,4.6S185,101,182.5,101z"/>
	</g>
	<g>
		<path class="st1" d="M191.7,228c2.7,0.1,4.8,2.4,4.8,5.1c-0.1,2.7-2.4,4.8-5.1,4.8c-2.7-0.1-4.8-2.4-4.8-5.1v0
			C186.7,230,188.9,227.9,191.7,228 M192.1,214.1c-10.5-0.3-19.2,8-19.5,18.4c-0.3,10.5,8,19.2,18.4,19.5c10.5,0.3,19.2-8,19.5-18.4
			c0.3-10.5-7.8-19.2-18.3-19.6L192.1,214.1z"/>
		<path class="st1" d="M84.3,228c2.7,0.1,4.8,2.4,4.8,5.1c-0.1,2.7-2.4,4.8-5.1,4.8c-2.7-0.1-4.8-2.4-4.8-5.1l0,0
			C79.3,230,81.6,227.9,84.3,228 M84.7,214.1c-10.5-0.3-19.2,7.8-19.6,18.3c-0.3,10.5,7.8,19.2,18.3,19.6
			c10.5,0.3,19.2-7.8,19.6-18.3C103.4,223.2,95.2,214.4,84.7,214.1z"/>
	</g>
	<g>
		<g>
			<path class="st1" d="M209.4,177.1c-0.6,1.8-2.6,3.2-4.5,3.2H73.5c-1.9,0-3.8-1.5-4.4-3.3l-44-138.5c-0.6-1.8-2.5-3.2-4.4-3.2H5.4
				c-1.9,0-3.4-1.6-3.4-3.4v-6.7c0-1.9,1.6-3.8,3.4-3.8h25.2c1.9,0,3.8,1.7,4.4,3.4l44,138.5c0.6,1.8,2.5,3.1,4.4,3.1h111.9
				c1.9,0,3.9-1.2,4.5-3L230,75.5c0.6-1.8-0.4-3.1-2.3-3.1H72.8c-1.9,0-3.8-1.5-4.3-3.2l-2-7.4c-0.5-1.8,0.6-3.2,2.5-3.2l177.6,0.4
				c1.9,0,2.9,1.5,2.3,3.2L209.4,177.1z"/>
		</g>
	</g>
	<g>
		<g>
			<g>
				<path class="st1" d="M211.9,201c0,1.9-1.5,3.4-3.4,3.4H71.3c-1.9,0-3.4-1.5-3.4-3.4v-6.3c0-1.9,1.5-3.4,3.4-3.4h137.3
					c1.9,0,3.4,1.5,3.4,3.4V201z"/>
			</g>
		</g>
	</g>
</g>
</svg>
