<?xml version="1.0" encoding="utf-8"?>
<!-- Generator: Adobe Illustrator 19.1.0, SVG Export Plug-In . SVG Version: 6.00 Build 0)  -->
<svg version="1.1" id="Layer_1" xmlns="http://www.w3.org/2000/svg" xmlns:xlink="http://www.w3.org/1999/xlink" x="0px" y="0px"
	 width="252px" height="252px" viewBox="0 0 252 252" style="enable-background:new 0 0 252 252;" xml:space="preserve">
<style type="text/css">
	.st0{fill:#F1F1F1;}
	.st1{fill:#F2F2F2;}
</style>
<g>
	<rect x="7.6" y="192.6" class="st0" width="20.8" height="59.4"/>
	<rect x="47.6" y="161.2" class="st0" width="20.8" height="90.8"/>
	<rect x="87.6" y="176.9" class="st0" width="20.8" height="75.1"/>
	<rect x="127.5" y="131.9" class="st0" width="20.8" height="120.1"/>
	<rect x="167.5" y="80.1" class="st0" width="20.8" height="171.9"/>
	<rect x="207.5" y="59.2" class="st0" width="20.8" height="192.8"/>
	<g>
		<polygon class="st1" points="12,174.8 3.2,166.3 55.7,111.9 96.1,134.4 126.2,90.5 126.4,90.3 174.2,32.3 217.6,16.2 221.9,27.7 
			181.6,42.7 136.1,97.9 99.8,150.6 58,127.2 		"/>
	</g>
	<g>
		<polygon class="st0" points="221.3,44.4 248.8,11.2 206.4,4 		"/>
	</g>
</g>
</svg>
